<svg id="fa9fe0bd-cc3b-4488-8050-5b6565ab599a" data-name="ed44757a-538d-49ef-bb22-adad04f5fbd4" xmlns="http://www.w3.org/2000/svg" xmlns:xlink="http://www.w3.org/1999/xlink" viewBox="0 0 1000 377.2501"><defs><style>.b1ca1211-c1fd-4bc5-8d47-d3adb4e4342b{fill:url(#ef170c57-bbe0-4391-99e5-c52303410029);}.f66cbef1-5c91-4489-9d14-d6be2fa5e55b{fill:#d6dbdc;}</style><linearGradient id="ef170c57-bbe0-4391-99e5-c52303410029" y1="188.625" x2="835.3077" y2="188.625" gradientUnits="userSpaceOnUse"><stop offset="0" stop-color="#0072ff"/><stop offset="1" stop-color="#0082ff"/></linearGradient></defs><path class="b1ca1211-c1fd-4bc5-8d47-d3adb4e4342b" d="M0,304.7864V9.2224L54.0177,0V100.132a150.7033,150.7033,0,0,1,15.81-4.1731,78.7847,78.7847,0,0,1,16.25-1.9755q22.83,0,38.2086,6.8063A60.0866,60.0866,0,0,1,148.88,120.1143a79.42,79.42,0,0,1,13.1747,29.8635,173.1844,173.1844,0,0,1,3.9535,38.427V304.7864H111.9889V195.432q0-28.9849-6.588-41.7216-6.5872-12.7329-25.0327-12.7354a62.4688,62.4688,0,0,0-14.7121,1.756q-7.2462,1.7612-11.6384,3.0749V304.7864Zm399.21-103.645q0,24.6006-7.0284,44.5757a103.6976,103.6976,0,0,1-19.7626,34.4759A87.4232,87.4232,0,0,1,341.8968,302.59q-17.787,7.9052-39.7448,7.9057-21.9667,0-39.7461-7.9057a89.5336,89.5336,0,0,1-30.742-22.3971,101.499,101.499,0,0,1-19.9823-34.4759q-7.0308-19.9776-7.026-44.5757,0-24.1482,7.2457-44.1364a102.0716,102.0716,0,0,1,20.2018-34.2563,87.8911,87.8911,0,0,1,30.9618-21.959,103.8007,103.8007,0,0,1,78.3926,0A88.4982,88.4982,0,0,1,372.2,122.7487a99.4258,99.4258,0,0,1,19.9823,34.2563Q399.2055,176.9933,399.21,201.1414Zm-139.6585.4393q0,27.6672,9.8813,44.7953t31.84,17.1281q21.08,0,31.84-17.1281,10.7563-17.1282,10.76-44.7953,0-27.6672-9.8813-44.5757-9.8819-16.902-31.84-16.9085-21.0816,0-31.84,16.9085Q259.5447,173.9158,259.5518,201.5807Zm357.9256,0a171.1116,171.1116,0,0,1-5.2689,43.6971q-5.2713,19.99-15.3722,34.2563a70.0979,70.0979,0,0,1-25.4708,22.1786q-15.3793,7.9051-35.5741,7.9046-20.6472,0-42.6-10.101V377.25H439.1724V104.9629q14.9269-4.8279,36.6711-7.9058a306.3448,306.3448,0,0,1,42.8209-3.0737q47.862,0,73.3422,28.985Q617.4691,151.9534,617.4774,201.5807ZM562.58,203.3378q0-27.669-10.98-45.4554t-33.3754-17.7859q-6.1581,0-13.1758.6589-7.0308.659-11.8581,1.097V255.16a45.011,45.011,0,0,0,14.0545,5.7082,71.912,71.912,0,0,0,17.5662,2.1964q19.3221,0,28.5457-15.5907Q562.5823,231.89,562.58,203.3378Zm82.1277,0q0-27.2256,8.3438-47.87,8.3379-20.638,21.959-34.4747a90.4953,90.4953,0,0,1,31.1814-20.8608,96.2178,96.2178,0,0,1,36.011-7.0272q45.6714,0,69.3911,27.01,23.7136,27.0082,23.7137,78.8307,0,5.2713-.2185,10.98-.2278,5.7129-.66,9.2236H700.4813q0,20.2055,16.69,31.8391,16.6829,11.6414,43.0394,11.6384a132.703,132.703,0,0,0,30.9605-3.513q14.71-3.51,24.8131-7.0272l7.4653,46.1131a245.7627,245.7627,0,0,1-29.8636,8.1254,175.1661,175.1661,0,0,1-35.5717,3.2934q-26.3529,0-47.2113-6.8076a96.3646,96.3646,0,0,1-35.5741-20.2019,88.49,88.49,0,0,1-22.6167-33.1569Q644.7053,229.6871,644.7077,203.3378Zm138.3382-21.52a58.2327,58.2327,0,0,0-2.194-16.03,40.0988,40.0988,0,0,0-7.0284-13.8336,35.75,35.75,0,0,0-12.2973-9.8825q-7.4724-3.7254-18.4448-3.7326a43.575,43.575,0,0,0-18.2263,3.513,35.09,35.09,0,0,0-12.7342,9.6629,47.1579,47.1579,0,0,0-7.907,14.0532,68.7127,68.7127,0,0,0-3.7326,16.25Z"/><path class="f66cbef1-5c91-4489-9d14-d6be2fa5e55b" d="M1000,270.0921q0,19.3291-11.858,29.4242a40.8,40.8,0,0,1-27.23,10.101,42.171,42.171,0,0,1-14.9306-2.6345,37.9789,37.9789,0,0,1-12.5181-7.6861,37.5345,37.5345,0,0,1-8.7831-12.2973,40.536,40.536,0,0,1-3.2934-16.9073,39.4142,39.4142,0,0,1,3.2934-16.4693,35.2689,35.2689,0,0,1,8.7831-12.0776,40.0491,40.0491,0,0,1,12.5181-7.4653,42.1449,42.1449,0,0,1,14.9306-2.6357,40.8,40.8,0,0,1,27.23,10.101Q999.9988,251.6533,1000,270.0921Z"/></svg>